<?xml version="1.0" standalone="no"?>
<!DOCTYPE svg PUBLIC "-//W3C//DTD SVG 20010904//EN"
 "http://www.w3.org/TR/2001/REC-SVG-20010904/DTD/svg10.dtd">
<svg version="1.0" xmlns="http://www.w3.org/2000/svg"
 width="500.000000pt" height="500.000000pt" viewBox="0 0 500.000000 500.000000"
 preserveAspectRatio="xMidYMid meet">
<metadata>
Created by potrace 1.11, written by Peter Selinger 2001-2013
</metadata>
<g transform="translate(0.000000,500.000000) scale(0.100000,-0.100000)"
fill="#000000" stroke="none">
<path d="M3320 4713 c-41 -7 -99 -25 -130 -40 -106 -52 -205 -182 -209 -275
-1 -11 -8 -16 -21 -13 -11 2 -22 0 -25 -4 -2 -5 5 -8 16 -7 19 1 21 -5 23 -64
2 -36 8 -78 15 -95 8 -16 18 -41 25 -55 14 -33 57 -92 78 -108 9 -7 23 -18 30
-25 7 -8 41 -27 76 -44 34 -16 60 -31 58 -34 -2 -2 25 -5 61 -6 36 -2 73 -9
81 -15 13 -10 14 -10 8 0 -4 7 -1 12 8 12 9 0 16 -6 16 -12 0 -9 3 -10 8 -2 4
6 14 11 22 12 13 1 79 15 115 25 6 2 33 14 60 27 71 35 137 105 175 186 30 62
33 78 34 159 0 80 -3 97 -30 155 -62 131 -185 213 -339 226 -33 3 -64 6 -70 8
-5 1 -44 -4 -85 -11z"/>
<path d="M2936 4342 c-3 -5 1 -9 9 -9 8 0 12 4 9 9 -3 4 -7 8 -9 8 -2 0 -6 -4
-9 -8z"/>
<path d="M2935 4300 c3 -5 8 -10 11 -10 2 0 4 5 4 10 0 6 -5 10 -11 10 -5 0
-7 -4 -4 -10z"/>
<path d="M1160 4106 c-1 -17 -1 -102 -1 -189 0 -86 -5 -155 -9 -152 -5 3 -12
1 -15 -5 -4 -6 -1 -9 6 -8 9 2 14 -15 16 -55 2 -34 -1 -56 -6 -52 -5 3 -13 1
-16 -5 -4 -6 -1 -9 7 -8 10 2 13 -34 15 -175 2 -107 -1 -176 -6 -172 -5 3 -13
1 -16 -5 -4 -6 -1 -9 6 -8 9 2 14 -15 16 -55 2 -34 -1 -56 -6 -52 -5 3 -13 1
-16 -5 -4 -6 -1 -9 7 -8 10 2 13 -33 15 -175 1 -99 -2 -175 -7 -172 -5 3 -12
1 -15 -5 -4 -6 -1 -9 6 -8 9 2 14 -15 16 -55 2 -34 -1 -56 -6 -52 -5 3 -13 1
-16 -5 -4 -6 -1 -9 7 -8 10 2 14 -24 16 -116 3 -96 1 -117 -10 -110 -10 6 -10
5 -2 -7 16 -21 17 -162 1 -153 -8 5 -7 2 2 -9 11 -14 11 -20 0 -34 -8 -10 -9
-14 -2 -10 9 6 12 -9 12 -53 -1 -43 -4 -58 -12 -53 -9 5 -9 3 -1 -8 16 -21 18
-82 2 -73 -11 6 -11 5 0 -8 7 -9 12 -29 11 -44 0 -16 2 -62 6 -103 3 -40 3
-71 -2 -68 -5 3 -9 -3 -10 -13 -1 -11 2 -22 8 -25 5 -3 6 1 3 9 -3 9 -1 16 5
16 6 0 12 -12 13 -27 2 -31 5 -54 8 -65 1 -5 3 -11 5 -15 1 -5 7 -21 13 -36 7
-16 12 -34 12 -41 0 -8 7 -19 15 -26 16 -13 21 -45 6 -36 -11 7 -8 -21 4 -31
4 -4 5 -2 1 5 -4 6 -3 12 3 12 16 0 51 -75 46 -98 -3 -15 0 -19 12 -15 12 5
12 7 1 14 -9 6 -10 9 -1 9 7 0 19 -13 28 -30 9 -16 20 -30 25 -30 6 0 10 -7
10 -16 0 -8 5 -12 10 -9 10 6 15 -9 10 -30 -1 -5 1 -7 5 -3 4 4 32 -11 64 -32
31 -21 68 -44 84 -51 15 -7 27 -16 27 -21 0 -4 7 -8 15 -8 9 0 35 -9 57 -20
23 -11 49 -20 58 -20 9 0 20 -3 23 -7 4 -4 26 -8 50 -11 23 -2 51 -11 61 -20
11 -9 16 -12 13 -5 -11 19 95 4 110 -16 12 -15 13 -15 7 2 -7 20 6 22 25 5 11
-10 13 -10 7 0 -4 6 -2 12 3 12 6 0 11 -5 11 -12 0 -9 3 -9 12 0 15 15 32 16
22 1 -4 -7 1 -7 15 1 16 8 26 8 35 1 7 -6 16 -8 20 -4 11 11 50 11 65 -1 11
-8 13 -8 7 2 -5 8 2 12 23 12 37 0 27 -2 102 16 33 8 64 12 69 9 5 -3 10 -1
12 5 1 5 12 11 23 13 40 8 163 64 199 92 18 14 18 15 -2 67 -11 29 -50 132
-86 228 -35 96 -68 183 -72 193 -6 17 -8 16 -42 -3 -19 -12 -41 -19 -49 -16
-8 3 -12 2 -8 -3 12 -20 -107 -45 -211 -44 -127 1 -211 57 -259 173 -18 42
-19 82 -21 562 -2 472 0 517 15 521 14 4 14 5 -1 6 -20 1 -24 26 -6 37 7 5 8
3 3 -6 -6 -10 -4 -11 6 -4 20 13 69 12 69 0 0 -8 3 -8 8 0 10 14 103 14 95 0
-5 -8 -2 -7 8 0 16 13 117 13 138 0 10 -6 12 -5 7 2 -4 7 -1 12 8 12 9 0 16
-5 16 -11 0 -8 5 -7 16 2 13 10 17 10 25 -2 6 -10 9 -10 9 -1 0 6 5 12 11 12
5 0 7 -5 3 -12 -5 -8 -3 -8 7 -2 8 5 32 10 54 10 22 1 55 2 73 3 l32 1 0 270
0 270 -257 -1 c-142 0 -277 0 -299 0 l-42 1 0 283 c0 155 -1 287 -1 293 -1 9
-94 12 -351 11 l-350 0 0 -31z"/>
<path d="M2970 4099 c0 -5 5 -7 10 -4 6 3 10 8 10 11 0 2 -4 4 -10 4 -5 0 -10
-5 -10 -11z"/>
<path d="M3036 4062 c-3 -5 1 -9 9 -9 8 0 12 4 9 9 -3 4 -7 8 -9 8 -2 0 -6 -4
-9 -8z"/>
<path d="M3210 3939 c0 -5 5 -7 10 -4 6 3 10 8 10 11 0 2 -4 4 -10 4 -5 0 -10
-5 -10 -11z"/>
<path d="M1110 3839 c0 -5 5 -7 10 -4 6 3 10 8 10 11 0 2 -4 4 -10 4 -5 0 -10
-5 -10 -11z"/>
<path d="M3060 3413 c-1 -104 -2 -672 -3 -1264 -2 -840 -5 -1079 -14 -1091 -7
-8 -10 -17 -7 -20 7 -8 -26 -88 -37 -88 -5 0 -9 -6 -9 -13 0 -15 -51 -63 -62
-59 -5 1 -8 -2 -8 -7 0 -7 -29 -19 -60 -25 -3 -1 -9 -4 -15 -8 -18 -11 -146
-6 -208 8 -34 8 -84 26 -111 40 -43 23 -50 24 -58 10 -5 -9 -8 -17 -8 -18 1
-2 -5 -16 -14 -32 -8 -16 -13 -33 -10 -38 3 -4 0 -8 -5 -8 -6 0 -10 -3 -10 -7
3 -20 -2 -34 -10 -28 -5 3 -13 0 -17 -6 -4 -8 -3 -9 4 -5 7 4 12 1 12 -8 0 -9
-4 -16 -8 -16 -4 0 -9 -10 -9 -22 -1 -13 -7 -24 -12 -26 -5 -2 -7 -10 -4 -18
3 -8 1 -20 -5 -27 -5 -6 -16 -31 -22 -54 -7 -24 -17 -40 -23 -36 -6 3 -7 1 -3
-5 3 -6 -5 -40 -18 -76 l-25 -65 45 -21 c25 -12 51 -29 59 -37 9 -9 15 -10 15
-3 0 6 4 9 10 5 5 -3 7 -13 4 -23 -4 -12 -3 -13 3 -5 10 14 15 13 113 -12 36
-10 68 -22 72 -29 6 -8 8 -7 8 2 0 6 7 12 16 12 11 0 14 -6 10 -17 -6 -17 -5
-17 7 -1 8 10 17 15 20 11 4 -3 39 -8 79 -10 40 -3 76 -10 80 -16 6 -9 8 -9 8
1 0 6 12 12 28 12 15 0 34 -6 41 -12 8 -8 11 -8 8 -2 -4 7 2 14 14 17 16 4 19
2 15 -11 -5 -15 -5 -15 6 -2 8 9 30 16 54 16 23 1 46 4 51 7 5 4 29 8 51 9 23
2 42 6 42 9 0 4 10 9 23 12 12 2 31 8 41 12 15 7 17 5 11 -6 -5 -8 1 -6 12 4
12 10 27 19 35 21 7 1 19 5 26 9 6 5 17 5 24 1 6 -4 8 -3 5 2 -3 6 20 24 52
42 128 70 251 214 312 363 47 114 65 197 75 329 5 64 9 2399 5 2493 -1 16 -25
17 -351 17 l-350 0 0 -187z"/>
<path d="M2990 3481 c0 -6 4 -13 10 -16 6 -3 7 1 4 9 -7 18 -14 21 -14 7z"/>
<path d="M3017 3435 c-4 -8 -3 -16 1 -19 4 -3 9 4 9 15 2 23 -3 25 -10 4z"/>
<path d="M3035 3350 c-4 -6 -11 -7 -17 -4 -7 4 -8 2 -4 -5 6 -9 11 -9 22 0 14
11 18 19 10 19 -3 0 -8 -5 -11 -10z"/>
<path d="M3015 3300 c3 -5 8 -10 11 -10 2 0 4 5 4 10 0 6 -5 10 -11 10 -5 0
-7 -4 -4 -10z"/>
<path d="M2985 3260 c-3 -6 1 -7 9 -4 18 7 21 14 7 14 -6 0 -13 -4 -16 -10z"/>
<path d="M1973 2975 c0 -8 4 -12 9 -9 5 3 6 10 3 15 -9 13 -12 11 -12 -6z"/>
<path d="M1110 2879 c0 -5 5 -7 10 -4 6 3 10 8 10 11 0 2 -4 4 -10 4 -5 0 -10
-5 -10 -11z"/>
<path d="M3035 2830 c-4 -6 -11 -7 -17 -4 -7 4 -8 2 -4 -5 6 -9 11 -9 22 0 14
11 18 19 10 19 -3 0 -8 -5 -11 -10z"/>
<path d="M3015 2780 c3 -5 8 -10 11 -10 2 0 4 5 4 10 0 6 -5 10 -11 10 -5 0
-7 -4 -4 -10z"/>
<path d="M3035 2710 c-4 -6 -11 -7 -17 -4 -7 4 -8 2 -4 -5 6 -9 11 -9 22 0 14
11 18 19 10 19 -3 0 -8 -5 -11 -10z"/>
<path d="M3015 2660 c3 -5 8 -10 11 -10 2 0 4 5 4 10 0 6 -5 10 -11 10 -5 0
-7 -4 -4 -10z"/>
<path d="M2985 2620 c-3 -6 1 -7 9 -4 18 7 21 14 7 14 -6 0 -13 -4 -16 -10z"/>
<path d="M1114 2409 c-3 -6 -2 -15 3 -20 5 -5 9 -1 9 11 0 23 -2 24 -12 9z"/>
<path d="M3014 2302 c4 -3 14 -7 22 -8 9 -1 13 0 10 4 -4 3 -14 7 -22 8 -9 1
-13 0 -10 -4z"/>
<path d="M3015 2259 c-3 -4 2 -6 10 -5 21 3 28 13 10 13 -9 0 -18 -4 -20 -8z"/>
<path d="M1073 2235 c0 -8 4 -12 9 -9 5 3 6 10 3 15 -9 13 -12 11 -12 -6z"/>
<path d="M2995 2129 c-4 -6 -5 -12 -2 -15 2 -3 7 2 10 11 7 17 1 20 -8 4z"/>
<path d="M1105 2080 c-3 -6 1 -7 9 -4 18 7 21 14 7 14 -6 0 -13 -4 -16 -10z"/>
<path d="M1115 2051 c-3 -5 -2 -12 3 -15 5 -3 9 1 9 9 0 17 -3 19 -12 6z"/>
<path d="M3035 1870 c-4 -6 -11 -7 -17 -4 -7 4 -8 2 -4 -5 6 -9 11 -9 22 0 14
11 18 19 10 19 -3 0 -8 -5 -11 -10z"/>
<path d="M3015 1820 c3 -5 8 -10 11 -10 2 0 4 5 4 10 0 6 -5 10 -11 10 -5 0
-7 -4 -4 -10z"/>
<path d="M3035 1750 c-4 -6 -11 -7 -17 -4 -7 4 -8 2 -4 -5 6 -9 11 -9 22 0 14
11 18 19 10 19 -3 0 -8 -5 -11 -10z"/>
<path d="M1154 1720 c0 -13 4 -16 10 -10 7 7 7 13 0 20 -6 6 -10 3 -10 -10z"/>
<path d="M1119 1713 c-13 -16 -12 -17 4 -4 9 7 17 15 17 17 0 8 -8 3 -21 -13z"/>
<path d="M3015 1700 c3 -5 8 -10 11 -10 2 0 4 5 4 10 0 6 -5 10 -11 10 -5 0
-7 -4 -4 -10z"/>
<path d="M2985 1660 c-3 -6 1 -7 9 -4 18 7 21 14 7 14 -6 0 -13 -4 -16 -10z"/>
<path d="M3016 1458 c3 -5 10 -6 15 -3 13 9 11 12 -6 12 -8 0 -12 -4 -9 -9z"/>
<path d="M3015 1420 c3 -5 8 -10 11 -10 2 0 4 5 4 10 0 6 -5 10 -11 10 -5 0
-7 -4 -4 -10z"/>
<path d="M3015 1380 c-3 -5 -1 -10 4 -10 6 0 11 5 11 10 0 6 -2 10 -4 10 -3 0
-8 -4 -11 -10z"/>
<path d="M3016 1342 c-3 -4 4 -9 15 -9 23 -2 25 3 4 10 -8 4 -16 3 -19 -1z"/>
<path d="M1330 1336 c0 -2 8 -10 18 -17 15 -13 16 -12 3 4 -13 16 -21 21 -21
13z"/>
<path d="M3033 1245 c0 -8 4 -12 9 -9 5 3 6 10 3 15 -9 13 -12 11 -12 -6z"/>
<path d="M1475 1220 c-3 -5 -1 -10 4 -10 6 0 11 5 11 10 0 6 -2 10 -4 10 -3 0
-8 -4 -11 -10z"/>
<path d="M2350 745 c0 -5 5 -17 10 -25 5 -8 10 -10 10 -5 0 6 -5 17 -10 25 -5
8 -10 11 -10 5z"/>
<path d="M2336 667 c3 -10 9 -15 12 -12 3 3 0 11 -7 18 -10 9 -11 8 -5 -6z"/>
<path d="M2273 555 c0 -8 4 -12 9 -9 5 3 6 10 3 15 -9 13 -12 11 -12 -6z"/>
<path d="M2295 520 c-3 -5 -1 -10 4 -10 6 0 11 5 11 10 0 6 -2 10 -4 10 -3 0
-8 -4 -11 -10z"/>
<path d="M2273 465 c0 -8 4 -12 9 -9 5 3 6 10 3 15 -9 13 -12 11 -12 -6z"/>
<path d="M2270 380 c0 -5 5 -10 11 -10 5 0 7 5 4 10 -3 6 -8 10 -11 10 -2 0
-4 -4 -4 -10z"/>
<path d="M2295 360 c-3 -5 -1 -10 4 -10 6 0 11 5 11 10 0 6 -2 10 -4 10 -3 0
-8 -4 -11 -10z"/>
<path d="M2333 345 c0 -8 4 -12 9 -9 5 3 6 10 3 15 -9 13 -12 11 -12 -6z"/>
<path d="M2753 235 c0 -8 4 -12 9 -9 5 3 6 10 3 15 -9 13 -12 11 -12 -6z"/>
</g>
</svg>
