<?xml version="1.0" standalone="no"?>
<!DOCTYPE svg PUBLIC "-//W3C//DTD SVG 20010904//EN"
 "http://www.w3.org/TR/2001/REC-SVG-20010904/DTD/svg10.dtd">
<svg version="1.0" xmlns="http://www.w3.org/2000/svg"
 width="500.000000pt" height="500.000000pt" viewBox="0 0 500.000000 500.000000"
 preserveAspectRatio="xMidYMid meet">
<metadata>
Created by potrace 1.14, written by Peter Selinger 2001-2017
</metadata>
<g transform="translate(0.000000,500.000000) scale(0.100000,-0.100000)"
fill="#000000" stroke="none">
<path d="M3289 4686 c-153 -43 -277 -174 -293 -311 -8 -68 -6 -198 3 -190 5 5
56 -98 53 -107 -1 -5 3 -8 9 -8 5 0 7 -5 3 -12 -4 -7 -3 -8 5 -4 6 4 18 1 26
-8 17 -17 20 -30 5 -21 -5 3 -10 1 -10 -5 0 -6 8 -9 18 -6 10 4 28 -4 44 -18
14 -14 29 -22 34 -18 4 4 5 2 1 -3 -3 -6 6 -15 19 -22 13 -6 22 -7 18 -2 -3 5
2 6 10 3 9 -3 16 -12 16 -19 0 -8 4 -17 10 -20 6 -3 7 1 4 10 -5 13 -2 14 20
5 14 -5 26 -6 26 -2 0 4 5 0 10 -8 7 -11 10 -11 10 -2 0 7 5 10 10 7 6 -4 7
-12 3 -18 -5 -9 -3 -9 8 -1 16 13 127 12 148 0 10 -7 12 -5 7 3 -5 8 -3 11 5
10 8 -2 24 2 36 9 12 7 29 9 37 6 10 -4 16 -1 16 7 0 12 2 12 9 1 7 -11 9 -10
15 3 3 9 10 13 16 10 5 -3 10 -2 10 4 0 5 10 13 22 16 11 4 43 29 69 56 46 47
69 63 53 37 -4 -7 -3 -8 5 -4 6 4 9 11 6 16 -8 13 6 41 18 33 6 -3 7 -1 3 5
-4 6 -1 22 6 34 12 23 17 38 20 71 1 9 5 17 8 17 15 0 0 159 -20 212 -42 114
-168 214 -299 238 -72 13 -195 11 -252 -4z"/>
<path d="M1180 4076 c-2 -327 2 -2194 5 -2231 4 -46 10 -79 36 -178 5 -20 7
-43 3 -49 -4 -6 -3 -8 3 -5 13 8 47 -78 37 -94 -4 -7 -3 -9 3 -6 11 7 66 -69
66 -90 0 -7 6 -13 13 -13 20 0 28 -21 13 -32 -11 -8 -10 -9 3 -4 10 3 21 -1
25 -7 6 -10 80 -71 102 -84 2 -1 -1 -9 -8 -16 -9 -11 -7 -17 6 -28 16 -13 17
-12 5 3 -10 13 -10 18 -1 24 7 4 15 2 17 -4 2 -7 8 -10 13 -6 5 3 9 -5 10 -18
0 -22 1 -22 9 -3 5 11 9 15 9 9 1 -6 19 -17 41 -24 22 -7 40 -17 40 -22 0 -5
5 -6 10 -3 6 3 10 1 10 -5 0 -6 5 -8 10 -5 6 3 10 2 10 -4 0 -6 7 -8 15 -5 10
4 13 0 10 -15 -2 -12 0 -19 6 -16 5 4 9 13 9 21 0 12 4 13 21 4 13 -8 18 -18
15 -28 -5 -15 -4 -15 8 1 16 21 20 21 40 1 9 -8 16 -11 16 -5 0 7 10 9 23 6
13 -4 31 -7 40 -9 9 -1 19 -5 23 -9 4 -3 -5 -4 -20 -1 -14 2 -26 0 -26 -5 0
-5 8 -8 18 -6 9 1 23 -3 31 -9 9 -7 12 -7 9 -1 -4 6 -3 17 3 25 7 12 9 11 9
-5 0 -16 2 -17 9 -6 8 13 12 13 27 0 10 -8 15 -9 11 -3 -10 16 53 10 64 -7 7
-11 9 -11 9 4 0 10 4 16 10 12 5 -3 7 -13 4 -23 -5 -15 -4 -15 6 1 7 12 18 16
31 12 10 -4 19 -2 19 3 0 13 33 10 43 -3 4 -6 11 -4 17 5 7 10 10 11 10 2 0
-10 4 -10 20 0 16 11 22 9 35 -7 14 -19 15 -19 8 -1 -4 13 -3 17 5 12 7 -4 12
-3 12 1 0 5 8 9 18 9 24 1 86 12 105 19 17 7 18 -9 2 -35 -8 -13 -7 -13 8 -1
10 8 15 16 12 19 -3 3 0 11 6 19 9 10 15 11 26 2 10 -9 12 -9 8 3 -3 8 0 15 7
16 22 2 43 7 56 15 6 5 17 5 24 1 6 -4 8 -3 5 3 -6 10 27 27 46 24 4 -1 7 3 7
8 0 9 38 27 50 24 18 -5 1 59 -62 225 -38 103 -79 210 -90 239 l-19 52 -57
-28 c-89 -44 -130 -54 -227 -54 -110 -1 -178 25 -230 86 -68 79 -69 83 -70
652 -1 348 2 515 9 524 8 11 8 13 -1 7 -17 -9 -17 2 0 17 13 13 111 17 123 5
4 -4 13 -3 21 3 10 9 13 8 13 0 0 -7 5 -9 13 -4 18 11 66 12 73 1 3 -5 12 -4
20 3 10 8 14 8 14 0 0 -6 5 -11 11 -11 5 0 8 4 5 8 -6 10 48 7 65 -3 8 -5 10
-4 5 3 -4 7 -2 12 3 12 6 0 11 -4 11 -10 0 -5 5 -10 11 -10 5 0 8 3 6 8 -3 4
10 8 29 8 19 1 34 -3 34 -7 0 -5 5 -9 11 -9 5 0 8 4 5 8 -7 12 38 10 46 -2 5
-7 8 -6 8 3 0 8 7 4 18 -10 15 -17 21 -19 27 -9 5 8 4 11 -3 6 -6 -3 -13 -2
-17 4 -3 5 -1 11 4 11 6 1 16 2 23 3 8 1 11 65 11 246 -1 135 -2 257 -2 271
l-1 26 -257 1 c-142 0 -276 1 -298 1 l-40 1 0 283 c1 155 0 287 -2 293 -3 7
-114 11 -353 11 l-350 0 0 -41z"/>
<path d="M3716 3982 c-3 -5 1 -9 9 -9 8 0 12 4 9 9 -3 4 -7 8 -9 8 -2 0 -6 -4
-9 -8z"/>
<path d="M3551 3910 c-13 -11 -19 -20 -14 -20 6 0 18 9 28 20 23 25 17 25 -14
0z"/>
<path d="M3373 3889 c-2 -23 3 -25 10 -4 4 8 3 16 -1 19 -4 3 -9 -4 -9 -15z"/>
<path d="M3435 3890 c-4 -6 -11 -7 -17 -4 -7 4 -8 2 -4 -5 6 -9 11 -9 22 0 14
11 18 19 10 19 -3 0 -8 -5 -11 -10z"/>
<path d="M3466 3883 c-6 -14 -5 -15 5 -6 7 7 10 15 7 18 -3 3 -9 -2 -12 -12z"/>
<path d="M3078 3578 c0 -2 -2 -566 -3 -1255 l-2 -1251 -23 -72 c-29 -92 -83
-149 -164 -174 -94 -30 -253 -12 -345 40 -24 13 -48 21 -51 17 -4 -5 -17 -35
-29 -68 -12 -33 -26 -69 -31 -80 -31 -70 -127 -342 -123 -352 5 -12 162 -90
175 -86 4 2 8 -5 9 -15 0 -10 3 -12 6 -4 5 13 33 17 33 4 0 -4 16 -8 36 -9 20
-1 40 -7 45 -15 7 -10 9 -10 9 0 0 7 5 10 10 7 6 -4 7 -12 4 -18 -5 -8 -3 -8
7 0 17 17 38 16 71 -1 23 -12 26 -12 21 1 -5 13 -2 13 15 4 11 -6 23 -16 26
-23 3 -7 4 -2 1 12 -3 14 -3 20 0 15 3 -6 27 -10 55 -9 27 1 47 -2 44 -7 -3
-5 -1 -9 5 -9 5 0 11 6 14 13 3 9 8 8 22 -3 11 -9 16 -10 11 -2 -7 12 8 14
102 15 17 1 32 4 32 7 0 11 30 7 30 -4 0 -6 6 -4 13 4 7 9 21 16 32 17 11 1
39 8 62 16 24 8 40 11 37 6 -3 -5 -1 -9 4 -9 6 0 13 7 16 16 4 9 9 14 13 11 3
-4 12 -2 19 4 8 6 22 8 31 5 10 -4 14 -4 11 0 -4 3 3 15 15 24 16 13 26 15 35
8 9 -8 11 -7 6 7 -5 13 -4 16 4 11 7 -4 22 4 36 18 13 14 28 26 34 26 5 0 13
7 16 16 4 9 13 14 22 10 8 -3 13 -2 10 3 -3 5 0 14 8 20 11 9 15 9 20 -1 3 -7
5 -4 2 8 -4 24 28 49 47 37 7 -4 6 0 -2 11 -13 15 -12 18 7 23 12 3 19 9 17
13 -3 5 6 20 20 34 14 14 23 26 20 26 -3 0 2 13 11 29 10 17 22 27 27 24 6 -3
7 -1 3 5 -6 10 20 90 33 102 3 3 8 12 9 20 15 65 20 84 22 90 5 11 7 26 8 53
1 16 5 26 10 24 4 -3 7 25 8 62 1 36 2 86 3 111 0 25 1 52 0 60 0 8 0 44 0 80
1 36 1 72 0 80 0 8 0 44 0 80 1 36 1 72 0 80 0 8 0 44 0 80 1 36 1 72 0 80 0
8 0 44 0 80 1 36 1 72 0 80 0 8 0 44 0 80 1 36 1 72 0 80 0 8 0 44 0 80 1 36
1 72 0 80 0 13 0 74 1 189 1 18 1 36 2 40 0 3 0 273 -1 599 l-1 592 -350 0
c-192 0 -351 -1 -352 -2z"/>
<path d="M1917 2973 c-10 -9 -9 -23 1 -23 5 0 9 7 9 15 0 17 -1 18 -10 8z"/>
<path d="M1990 2971 c0 -5 7 -12 16 -15 14 -5 15 -4 4 9 -14 17 -20 19 -20 6z"/>
<path d="M1956 2962 c-3 -5 1 -9 9 -9 8 0 12 4 9 9 -3 4 -7 8 -9 8 -2 0 -6 -4
-9 -8z"/>
<path d="M2097 2963 c-3 -5 5 -8 18 -8 13 0 21 3 18 8 -2 4 -10 7 -18 7 -8 0
-16 -3 -18 -7z"/>
<path d="M2195 2960 c-3 -5 -1 -10 4 -10 6 0 11 5 11 10 0 6 -2 10 -4 10 -3 0
-8 -4 -11 -10z"/>
<path d="M2300 2965 c0 -7 30 -13 34 -7 3 4 -4 9 -15 9 -10 1 -19 0 -19 -2z"/>
<path d="M1455 1280 c3 -5 8 -10 11 -10 2 0 4 5 4 10 0 6 -5 10 -11 10 -5 0
-7 -4 -4 -10z"/>
<path d="M1570 1206 c0 -2 7 -7 16 -10 8 -3 12 -2 9 4 -6 10 -25 14 -25 6z"/>
<path d="M2561 1201 c-10 -7 -7 -9 12 -8 14 1 23 5 20 10 -6 9 -15 9 -32 -2z"/>
<path d="M1606 1182 c-3 -5 1 -9 9 -9 8 0 12 4 9 9 -3 4 -7 8 -9 8 -2 0 -6 -4
-9 -8z"/>
<path d="M1716 1143 c-6 -14 -5 -15 5 -6 7 7 10 15 7 18 -3 3 -9 -2 -12 -12z"/>
<path d="M1770 1140 c0 -5 5 -10 11 -10 5 0 7 5 4 10 -3 6 -8 10 -11 10 -2 0
-4 -4 -4 -10z"/>
<path d="M2349 1123 c-13 -16 -12 -17 4 -4 16 13 21 21 13 21 -2 0 -10 -8 -17
-17z"/>
<path d="M2273 1105 c0 -8 4 -12 9 -9 5 3 6 10 3 15 -9 13 -12 11 -12 -6z"/>
<path d="M1980 1106 c0 -2 9 -6 20 -9 11 -3 18 -1 14 4 -5 9 -34 13 -34 5z"/>
<path d="M2120 1100 c-9 -6 -10 -10 -3 -10 6 0 15 5 18 10 8 12 4 12 -15 0z"/>
<path d="M2195 1100 c-3 -6 1 -7 9 -4 18 7 21 14 7 14 -6 0 -13 -4 -16 -10z"/>
<path d="M2310 346 c0 -2 7 -7 16 -10 8 -3 12 -2 9 4 -6 10 -25 14 -25 6z"/>
<path d="M2386 317 c3 -10 9 -15 12 -12 3 3 0 11 -7 18 -10 9 -11 8 -5 -6z"/>
<path d="M2440 286 c0 -2 8 -10 18 -17 15 -13 16 -12 3 4 -13 16 -21 21 -21
13z"/>
<path d="M3190 270 c0 -5 5 -10 11 -10 5 0 7 5 4 10 -3 6 -8 10 -11 10 -2 0
-4 -4 -4 -10z"/>
<path d="M2556 262 c-3 -5 1 -9 9 -9 8 0 12 4 9 9 -3 4 -7 8 -9 8 -2 0 -6 -4
-9 -8z"/>
<path d="M3116 253 c-6 -14 -5 -15 5 -6 7 7 10 15 7 18 -3 3 -9 -2 -12 -12z"/>
<path d="M2656 234 c-5 -14 -4 -15 9 -4 17 14 19 20 6 20 -5 0 -12 -7 -15 -16z"/>
<path d="M2793 225 c0 -7 6 -11 14 -8 7 3 13 6 13 8 0 2 -6 5 -13 8 -8 3 -14
-1 -14 -8z"/>
</g>
</svg>
