<?xml version="1.0" standalone="no"?>
<!DOCTYPE svg PUBLIC "-//W3C//DTD SVG 20010904//EN"
 "http://www.w3.org/TR/2001/REC-SVG-20010904/DTD/svg10.dtd">
<svg version="1.0" xmlns="http://www.w3.org/2000/svg"
 width="500.000000pt" height="500.000000pt" viewBox="0 0 500.000000 500.000000"
 preserveAspectRatio="xMidYMid meet">
<metadata>
Created by potrace 1.14, written by Peter Selinger 2001-2017
</metadata>
<g transform="translate(0.000000,500.000000) scale(0.100000,-0.100000)"
fill="#000000" stroke="none">
<path d="M3310 4714 c-79 -14 -165 -52 -215 -95 -18 -16 -36 -25 -40 -21 -5 4
-5 2 -2 -4 7 -12 -16 -38 -25 -28 -3 3 -5 -1 -5 -8 1 -12 -31 -86 -43 -98 -6
-6 -12 -52 -14 -112 0 -25 -5 -44 -9 -41 -5 3 -4 -3 2 -13 17 -32 30 -104 19
-104 -6 0 -1 -8 11 -17 12 -10 23 -28 24 -40 0 -12 3 -20 5 -18 6 5 32 -21 32
-32 1 -4 32 -32 71 -61 39 -29 68 -48 64 -42 -9 14 36 -10 47 -25 5 -7 8 -7 8
0 0 6 5 3 10 -5 6 -9 10 -11 10 -3 0 12 8 11 48 -3 9 -4 30 -6 45 -5 15 2 35
-3 44 -11 12 -9 15 -9 9 0 -5 9 2 12 26 12 19 0 40 -6 47 -12 10 -11 11 -10 6
2 -4 11 2 16 19 18 42 3 129 41 179 78 83 61 144 178 153 294 4 55 -22 164
-50 208 -92 146 -279 219 -476 186z"/>
<path d="M1150 4065 c0 -43 -5 -76 -12 -84 -10 -11 -10 -13 0 -7 8 5 12 -2 12
-26 0 -19 -6 -40 -12 -47 -10 -11 -10 -13 0 -7 9 6 12 -34 12 -186 0 -141 -3
-198 -12 -207 -10 -11 -10 -13 0 -7 8 5 12 -2 12 -26 0 -19 -6 -40 -12 -47
-10 -11 -10 -13 0 -7 18 10 18 -374 0 -393 -10 -11 -10 -13 0 -7 16 10 16 -55
0 -73 -10 -11 -10 -13 0 -7 18 10 18 -374 0 -393 -10 -11 -10 -13 0 -7 8 5 12
-2 12 -26 0 -19 -6 -40 -12 -47 -9 -10 -9 -12 -1 -7 9 5 12 -61 12 -275 1
-154 4 -286 8 -291 4 -7 1 -8 -8 -3 -12 7 -12 6 -1 -7 8 -9 12 -25 10 -35 -1
-10 1 -23 5 -29 6 -11 16 -70 20 -121 1 -11 5 -19 8 -17 9 5 29 -68 22 -80 -3
-6 -3 -8 1 -4 5 4 21 -19 37 -50 33 -65 33 -66 17 -56 -7 4 -8 3 -4 -5 4 -6
11 -9 16 -6 8 5 25 -24 21 -38 -1 -5 2 -6 7 -3 9 5 42 -28 42 -43 0 -6 9 -13
20 -16 19 -6 25 -18 20 -40 -1 -5 2 -7 5 -3 11 10 47 -11 40 -23 -4 -5 -3 -9
2 -8 14 2 53 -13 53 -20 0 -4 16 -13 35 -21 19 -7 31 -18 28 -23 -3 -6 -1 -7
5 -3 6 4 19 2 29 -3 45 -24 88 -41 105 -41 11 0 17 -3 15 -7 -3 -5 18 -9 46
-11 28 -1 53 -5 56 -10 6 -7 20 -9 99 -11 30 -1 41 -5 36 -13 -5 -7 -3 -8 6
-3 7 5 64 9 127 11 62 1 122 5 133 9 13 4 20 2 20 -7 0 -8 3 -9 8 -2 6 9 145
45 185 47 9 1 17 5 17 10 0 4 5 5 10 2 6 -3 10 -1 10 4 0 6 6 11 14 11 22 0
135 62 140 77 3 7 -3 34 -14 60 -18 46 -147 395 -155 420 -3 9 -27 2 -77 -22
-91 -43 -112 -47 -219 -48 -142 0 -222 50 -273 170 -20 46 -21 70 -23 591 -2
505 -1 543 14 530 9 -7 14 -8 10 -2 -8 14 141 14 162 0 9 -6 12 -5 7 2 -8 14
34 12 53 -2 11 -8 13 -8 8 1 -5 8 1 11 20 9 18 -1 27 -7 25 -16 -3 -11 2 -10
16 3 22 20 47 23 36 5 -6 -10 -4 -10 7 -2 16 13 78 13 98 0 9 -6 12 -5 8 1 -4
6 14 10 46 10 29 0 60 1 70 2 16 1 17 21 17 271 l0 270 -252 -1 c-139 0 -274
0 -300 0 l-47 1 0 248 c0 136 0 268 -1 293 l0 47 -350 -1 -350 0 0 -72z"/>
<path d="M3050 3533 c-1 -38 -1 -304 -1 -593 0 -402 -2 -526 -12 -532 -9 -6
-9 -8 1 -8 6 0 12 -10 12 -23 0 -13 -6 -29 -12 -36 -10 -11 -10 -13 0 -7 8 5
12 -1 12 -18 0 -14 -6 -26 -12 -26 -10 0 -10 -2 -1 -8 17 -11 17 -823 0 -834
-9 -6 -9 -8 1 -8 6 0 12 -10 12 -23 0 -13 -6 -29 -12 -36 -10 -11 -10 -13 0
-7 8 5 12 -1 12 -18 0 -14 -6 -26 -12 -26 -10 0 -10 -2 -1 -8 12 -7 16 -197 5
-216 -3 -6 -7 -25 -8 -43 -3 -49 -50 -138 -89 -171 -97 -79 -272 -82 -429 -6
-47 23 -51 23 -60 7 -10 -18 -12 -24 -15 -44 0 -5 -4 -8 -8 -6 -5 3 -8 -5 -9
-16 -1 -22 -34 -117 -44 -127 -3 -3 -7 -14 -8 -25 -2 -11 -7 -22 -10 -25 -4
-3 -8 -16 -10 -30 -1 -13 -6 -27 -10 -30 -4 -3 -8 -12 -9 -20 -2 -8 -16 -49
-32 -90 -28 -73 -28 -75 -10 -86 11 -5 16 -14 12 -19 -4 -4 -2 -5 6 0 9 5 19
2 28 -10 7 -11 13 -16 13 -13 0 4 24 -2 53 -12 28 -11 51 -23 50 -29 -1 -5 6
-7 17 -4 11 3 28 2 37 -2 10 -4 33 -10 52 -12 51 -6 55 -7 63 -18 5 -6 8 -6 8
1 0 7 10 9 25 6 14 -2 22 -9 18 -15 -4 -6 -1 -7 7 -2 15 9 256 9 272 -1 6 -4
8 -3 5 3 -4 6 4 11 21 11 15 0 38 3 52 6 14 4 39 8 55 10 55 6 199 61 275 106
83 48 194 154 245 234 49 76 84 162 122 291 16 55 17 162 20 1368 l4 1307
-351 0 -350 0 0 -67z"/>
</g>
</svg>
